<!DOCTYPE svg PUBLIC "-//W3C//DTD SVG 1.1//EN" "http://www.w3.org/Graphics/SVG/1.1/DTD/svg11.dtd">
<!-- Uploaded to: SVG Repo, www.svgrepo.com, Transformed by: SVG Repo Mixer Tools -->
<svg fill="#000000" width="64px" height="64px" viewBox="-1.5 -1.5 33.00 33.00" xmlns="http://www.w3.org/2000/svg">
<g id="SVGRepo_bgCarrier" stroke-width="0"/>
<g id="SVGRepo_iconCarrier">
<path d="M29.484 0c-.13.004-.252.057-.343.15L17.164 12.13c-.49.47.235 1.197.706.707L29.846.857c.325-.318.1-.857-.363-.857zM12.488 17c-.13.004-.25.058-.34.15L.162 29.14c-.486.467.233 1.186.7.7L12.848 17.85c.325-.313.093-.85-.36-.85zM.5 0a.5.5 0 0 0-.348.86L29.14 29.845a.5.5 0 1 0 .706-.706L.86.152A.5.5 0 0 0 .5 0z"/>
</g>
</svg>