<!DOCTYPE svg PUBLIC "-//W3C//DTD SVG 1.1//EN" "http://www.w3.org/Graphics/SVG/1.1/DTD/svg11.dtd">
<!-- Uploaded to: SVG Repo, www.svgrepo.com, Transformed by: SVG Repo Mixer Tools -->
<svg fill="#000000" width="64px" height="64px" viewBox="-1.5 -1.5 33.00 33.00" xmlns="http://www.w3.org/2000/svg">
<g id="SVGRepo_bgCarrier" stroke-width="0"/>
<g id="SVGRepo_iconCarrier">
<path d="M.5 24.006h29c.277 0 .5.223.5.5s-.223.5-.5.5H.5c-.277 0-.5-.223-.5-.5s.223-.5.5-.5zm0-10.003h29c.277 0 .5.223.5.5s-.223.5-.5.5H.5c-.277 0-.5-.223-.5-.5s.223-.5.5-.5zM.5 4h29c.277 0 .5.223.5.5s-.223.5-.5.5H.5C.223 5 0 4.777 0 4.5S.223 4 .5 4z"/>
</g>
</svg>